<svg xmlns="http://www.w3.org/2000/svg" viewBox="0 0 48 48">
  <path fill="#8B5CF6" d="M14 14h20a8 8 0 0 1 7.9 6.6l1.8 10A8 8 0 0 1 35.8 40c-2.2 0-4.2-1-5.6-2.6L28 35h-8l-2.2 2.4A7.6 7.6 0 0 1 12.2 40 8 8 0 0 1 4.3 30.6l1.8-10A8 8 0 0 1 14 14z"/>
  <circle cx="33.5" cy="23.5" r="2" fill="#0A0918" opacity="0.65"/>
  <circle cx="37.5" cy="27" r="2" fill="#0A0918" opacity="0.65"/>
  <circle cx="29.5" cy="27" r="2" fill="#0A0918" opacity="0.65"/>
  <circle cx="33.5" cy="30.5" r="2" fill="#0A0918" opacity="0.65"/>
  <rect x="10" y="22" width="9" height="2.6" rx="1.3" fill="#0A0918" opacity="0.7"/>
  <rect x="13.2" y="18.7" width="2.6" height="9" rx="1.3" fill="#0A0918" opacity="0.7"/>
  <path fill="#F0F5F9" d="M25.6 5.5l-7.4 13.2a.7.7 0 0 0 .65 1.05h4.6L21 30.2a.55.55 0 0 0 .98.4l9.1-12.9a.7.7 0 0 0-.6-1.1h-4.55l2.6-10.5a.55.55 0 0 0-.98-.42z"/>
</svg>
